<mxfile host="app.diagrams.net" modified="2023-09-07T20:08:18.451Z" agent="Mozilla/5.0 (Macintosh; Intel Mac OS X 10_15_7) AppleWebKit/537.36 (KHTML, like Gecko) Chrome/116.0.0.0 Safari/537.36" version="21.7.2" etag="1fHmbyrNzi6wCFhvh4BB" type="github">
  <diagram name="Page-1" id="Hv6y-X66HJAinNs9A4ob">
    <mxGraphModel>
      <root>
        <mxCell id="0" />
        <mxCell id="1" parent="0" />
      </root>
    </mxGraphModel>
  </diagram>
</mxfile>
